<svg xmlns="http://www.w3.org/2000/svg" width="24" height="24" viewBox="0 0 24 24" fill="#FFC107">
  <path d="M20 6h-2.18c0.11-0.31 0.18-0.65 0.18-1 0-1.66-1.34-3-3-3-1.05 0-1.96 0.54-2.5 1.35l-0.5 0.67-0.5-0.68c-0.54-0.8-1.45-1.34-2.5-1.34-1.66 0-3 1.34-3 3 0 0.35 0.07 0.69 0.18 1h-2.18c-1.11 0-1.99 0.89-1.99 2l-0.01 11c0 1.11 0.89 2 2 2h16c1.11 0 2-0.89 2-2v-11c0-1.11-0.89-2-2-2zM15 4c0.55 0 1 0.45 1 1s-0.45 1-1 1-1-0.45-1-1 0.45-1 1-1zM9 4c0.55 0 1 0.45 1 1s-0.45 1-1 1-1-0.45-1-1 0.45-1 1-1zM20 19h-16v-11h16v11z"></path>
  <path d="M12 12v7" stroke="#FFC107" stroke-width="2"></path>
  <path d="M7 12h10" stroke="#FFC107" stroke-width="2"></path>
</svg>